<?xml version="1.0" encoding="UTF-8" standalone="yes"?><svg fill="none" stroke-opacity="1" xmlns="http://www.w3.org/2000/svg" xmlns:xlink="http://www.w3.org/1999/xlink" version="1.2" baseProfile="tiny" x="0" y="0" width="48" height="48" viewBox="0 0 48 48"><defs/><path fill="#00bfff" fill-opacity="1" stroke="#00bfff" stroke-width="2" stroke-linejoin="round" d="M 24 30 C 30.6274 30 36 24.4694 36 17.6471 L 36 4 L 12 4 L 12 17.6471 C 12 24.4694 17.3726 30 24 30 Z"/><path fill-rule="evenodd" stroke="#00bfff" stroke-width="2" stroke-linejoin="round" stroke-linecap="round" clip-rule="evenodd" d="M 12 21 L 12 11 L 4 11 C 4 17.6667 8 21 12 21 Z"/><path fill-rule="evenodd" stroke="#00bfff" stroke-width="2" stroke-linejoin="round" stroke-linecap="round" clip-rule="evenodd" d="M 36 21 L 36 11 L 44 11 C 44 17.6667 40 21 36 21 Z"/><path stroke="#00bfff" stroke-width="2" stroke-linejoin="round" stroke-linecap="round" d="M 24 32 L 24 36"/><path fill="#00bfff" fill-opacity="1" stroke="#00bfff" stroke-width="2" stroke-linejoin="round" d="M 15 42 L 18.69 36 L 29.0425 36 L 33 42 L 15 42 Z"/></svg>
